<svg width="177" height="48" viewBox="0 0 177 48" fill="none" xmlns="http://www.w3.org/2000/svg">
<path d="M51.0154 36.9503C51.0154 31.0019 55.1966 26.8511 61.0275 26.8511C61.925 26.8511 63.0455 26.9654 64.2024 27.1524V29.3967C62.9314 29.2096 61.9613 29.1369 61.2506 29.1369C56.5817 29.1369 53.4432 32.3527 53.4432 36.9555C53.4432 41.5584 56.5817 44.7378 61.2506 44.7378C61.9613 44.7378 62.9314 44.665 64.2024 44.478V46.7223C63.0455 46.9457 61.925 47.06 61.0275 47.06C55.1966 47.0496 51.0154 42.8571 51.0154 36.9503Z" fill="url(#paint0_linear_1389_1869)"/>
<path d="M64.8579 36.8095C64.8579 30.7884 69.1896 26.5232 74.6055 26.5232C77.9308 26.5232 80.841 28.1337 82.1898 30.6013V26.8972H84.3946V46.649H82.1898V42.9812C80.8462 45.4489 77.9308 47.023 74.6055 47.023C69.1896 47.023 64.8579 42.7578 64.8579 36.8095ZM74.8701 44.7424C78.8697 44.7424 82.2313 41.9734 82.2313 36.8095C82.2313 31.6455 78.8697 28.8038 74.8701 28.8038C70.5021 28.8038 67.2857 32.1703 67.2857 36.8095C67.2857 41.4487 70.4969 44.7424 74.8701 44.7424Z" fill="url(#paint1_linear_1389_1869)"/>
<path d="M93.2767 26.5232C96.3789 26.5232 98.4695 28.0557 99.4033 30.3364C100.373 28.0557 102.464 26.5232 105.603 26.5232C109.934 26.5232 112.44 29.5883 112.44 34.5288V46.649H110.048V34.6431C110.048 31.0169 108.591 28.809 105.488 28.809C102.386 28.809 100.596 31.0897 100.596 35.0172V46.649H98.205V35.0172C98.205 31.0897 96.4878 28.809 93.3493 28.809C90.2108 28.809 88.7531 31.0169 88.7531 34.6431V46.649H86.3616V34.5288C86.3616 29.5935 88.862 26.5232 93.2715 26.5232H93.2767Z" fill="url(#paint2_linear_1389_1869)"/>
<path d="M116.611 43.2118V46.8016H114.407L114.407 16.5H116.798L116.798 26.229C116.798 27.6525 116.762 29.1071 116.726 30.4942C118.147 28.1772 120.985 26.681 124.16 26.681C129.575 26.681 133.949 30.9462 133.949 36.9673C133.949 42.9884 129.581 47.1808 124.16 47.1808C120.912 47.1808 117.997 45.6483 116.611 43.217V43.2118ZM123.931 44.895C128.299 44.895 131.516 41.5649 131.516 36.9621C131.516 32.3592 128.304 28.9564 123.931 28.9564C119.937 28.9564 116.57 31.7618 116.57 36.9621C116.57 42.1623 119.932 44.895 123.931 44.895Z" fill="url(#paint3_linear_1389_1869)"/>
<path fill-rule="evenodd" clip-rule="evenodd" d="M137.559 36.7094C137.559 31.9601 140.988 28.49 145.495 28.49C149.819 28.49 153.364 30.8627 160.669 38.0452C160.524 38.0448 160.379 38.0446 160.233 38.0446C160.23 38.0446 160.227 38.0445 160.224 38.0445C160.182 38.0442 160.155 38.044 160.155 38.1121C160.166 38.6004 160.166 39.0836 160.166 39.5667C160.166 39.6291 160.186 39.6395 160.243 39.6395H161.208C161.657 39.6421 162.107 39.6459 162.557 39.6498C163.007 39.6537 163.457 39.6576 163.906 39.6602C163.921 39.6602 163.938 39.6638 163.962 39.6689C163.979 39.6723 163.999 39.6765 164.023 39.6807C164.024 39.6825 164.025 39.6844 164.025 39.6862V39.681C164.025 39.6809 164.024 39.6808 164.023 39.6807C164.021 39.6715 164.018 39.6632 164.016 39.6555C164.006 39.6229 163.999 39.6026 163.999 39.5823C163.989 38.3563 163.978 37.1302 163.973 35.9042C163.973 35.8418 163.958 35.8263 163.895 35.8263C163.429 35.8263 162.967 35.8212 162.5 35.816L162.484 35.8159C162.407 35.8107 162.386 35.8263 162.386 35.9094L162.39 36.5188C155.078 29.3087 150.875 26.1953 145.495 26.1953C139.658 26.1953 135.264 30.7568 135.264 36.7094C135.264 42.6671 139.663 47.1923 145.495 47.1923C148.774 47.1923 151.628 45.7564 153.487 43.3996L151.686 41.9783C150.266 43.7776 148.079 44.8976 145.495 44.8976C140.983 44.8976 137.559 41.4536 137.559 36.7094Z" fill="url(#paint4_linear_1389_1869)"/>
<path fill-rule="evenodd" clip-rule="evenodd" d="M173.773 36.6614C173.773 41.4107 170.344 44.8808 165.837 44.8808C161.513 44.8808 157.968 42.5082 150.663 35.3256C150.808 35.3261 150.953 35.3263 151.099 35.3263C151.102 35.3263 151.105 35.3263 151.108 35.3263C151.15 35.3266 151.177 35.3268 151.177 35.2587C151.166 34.7704 151.166 34.2873 151.166 33.8041C151.166 33.7418 151.146 33.7314 151.089 33.7314L150.124 33.7314C149.675 33.7288 149.225 33.7249 148.775 33.721C148.325 33.7171 147.875 33.7132 147.426 33.7106C147.411 33.7106 147.394 33.707 147.37 33.702C147.353 33.6985 147.333 33.6943 147.309 33.6901C147.308 33.6883 147.307 33.6865 147.307 33.6846L147.307 33.6898C147.307 33.6899 147.308 33.69 147.309 33.6901C147.311 33.6993 147.314 33.7077 147.316 33.7154C147.326 33.748 147.333 33.7683 147.333 33.7885C147.343 35.0146 147.354 36.2406 147.359 37.4667C147.359 37.529 147.374 37.5446 147.437 37.5446C147.903 37.5446 148.365 37.5497 148.832 37.5548L148.848 37.555C148.925 37.5602 148.946 37.5446 148.946 37.4615L148.942 36.852C156.254 44.0621 160.457 47.1755 165.837 47.1755C171.674 47.1755 176.068 42.614 176.068 36.6614C176.068 30.7037 171.669 26.1785 165.837 26.1785C162.558 26.1785 159.704 27.6145 157.845 29.9713L159.646 31.3925C161.066 29.5933 163.253 28.4732 165.837 28.4732C170.349 28.4732 173.773 31.9173 173.773 36.6614Z" fill="url(#paint5_linear_1389_1869)"/>
<path d="M13.5585 22.85C20.8257 19.7989 30.4413 21.6518 30.7187 31.1047C30.8518 35.6499 29.2616 39.6847 26.9464 43.4903C26.1883 44.7403 25.0566 47.0998 24.5166 47.2034C23.8065 47.3402 12.0163 47.3144 11.7981 47.4105C10.7885 46.2233 10.145 36.0678 13.5585 22.85Z" fill="#041737"/>
<path d="M13.5586 22.8499C10.5038 34.2665 16.1918 45.9606 16.7539 47.2957C12.2568 47.3105 11.4912 47.7173 3.2588 47.3401C2.94444 47.3253 0.0634569 41.0123 0.00428396 37.7134C-0.202821 30.0764 7.13833 25.2131 13.5623 22.8499H13.5586Z" fill="url(#paint6_linear_1389_1869)"/>
<path d="M42.6277 0.541806C46.4554 1.03738 49.3586 5.03525 49.4104 8.8667L46.6366 7.01755C45.5604 3.06405 37.6941 -1.00039 34.3028 9.79128C33.6851 7.94213 34.3508 -0.149778 42.6277 0.541806Z" fill="#041737"/>
<path d="M33.9067 6.07812C33.9067 6.07812 33.9067 6.08966 33.9028 6.09351C33.9105 6.09351 33.9144 6.09351 33.9221 6.09351L33.9067 6.07812Z" fill="#071166"/>
<path d="M54.3434 12.2581C53.2117 11.315 49.665 9.1145 49.665 9.1145C48.8218 14.1701 43.6553 17.7907 38.8475 16.0229C35.5893 14.8247 32.601 10.9748 33.9028 6.09298C29.3317 6.0597 24.9159 6.91031 20.6333 8.47839C18.3033 11.2854 16.8536 11.9622 15.4963 15.3425C15.3521 15.6975 13.9504 18.6413 14.2648 19.0408C23.2073 17.8092 31.0514 19.1591 33.4553 27.7392C34.2801 30.8495 33.962 33.9782 33.4109 37.0774C32.7896 40.5464 32.7748 43.9563 33.962 47.3698C36.0183 47.3328 38.0782 47.2552 40.1308 47.3513C41.3993 47.4105 41.0886 47.4105 40.6301 46.5562C39.7905 44.9918 39.258 43.2943 38.8697 41.5598C37.0427 33.6232 41.0517 27.95 47.5644 25.2095C59.2806 20.276 59.8983 16.8847 54.3471 12.2581H54.3434Z" fill="#041737"/>
<path d="M21.3547 8.24902C17.9633 11.6404 15.5631 15.3683 14.572 19.0407C9.7087 20.435 5.88095 22.8056 2.03101 26.0712C2.24921 20.1798 12.5527 10.9747 21.3547 8.24902Z" fill="url(#paint7_linear_1389_1869)"/>
<defs>
<linearGradient id="paint0_linear_1389_1869" x1="57.6089" y1="26.8511" x2="57.6089" y2="47.06" gradientUnits="userSpaceOnUse">
<stop stop-color="#041737"/>
<stop offset="1" stop-color="#071166"/>
</linearGradient>
<linearGradient id="paint1_linear_1389_1869" x1="74.6262" y1="26.5232" x2="74.6262" y2="47.023" gradientUnits="userSpaceOnUse">
<stop stop-color="#041737"/>
<stop offset="1" stop-color="#071166"/>
</linearGradient>
<linearGradient id="paint2_linear_1389_1869" x1="99.4007" y1="26.5232" x2="99.4007" y2="46.649" gradientUnits="userSpaceOnUse">
<stop stop-color="#041737"/>
<stop offset="1" stop-color="#071166"/>
</linearGradient>
<linearGradient id="paint3_linear_1389_1869" x1="124.178" y1="16.5" x2="124.178" y2="47.1808" gradientUnits="userSpaceOnUse">
<stop stop-color="#041737"/>
<stop offset="1" stop-color="#071166"/>
</linearGradient>
<linearGradient id="paint4_linear_1389_1869" x1="149.645" y1="26.1953" x2="149.645" y2="47.1923" gradientUnits="userSpaceOnUse">
<stop stop-color="#041737"/>
<stop offset="1" stop-color="#071166"/>
</linearGradient>
<linearGradient id="paint5_linear_1389_1869" x1="161.687" y1="47.1755" x2="161.687" y2="26.1785" gradientUnits="userSpaceOnUse">
<stop stop-color="#041737"/>
<stop offset="1" stop-color="#071166"/>
</linearGradient>
<linearGradient id="paint6_linear_1389_1869" x1="8.37697" y1="22.8499" x2="8.37697" y2="47.4999" gradientUnits="userSpaceOnUse">
<stop stop-color="#041737"/>
<stop offset="1" stop-color="#071166"/>
</linearGradient>
<linearGradient id="paint7_linear_1389_1869" x1="11.6928" y1="8.24902" x2="11.6928" y2="26.0712" gradientUnits="userSpaceOnUse">
<stop stop-color="#041737"/>
<stop offset="1" stop-color="#071166"/>
</linearGradient>
</defs>
</svg>
