<svg width="126" height="32" viewBox="0 0 126 32" fill="none" xmlns="http://www.w3.org/2000/svg">
<path d="M0 21.1041C0 15.1558 4.18124 11.0049 10.0121 11.0049C10.9096 11.0049 12.0301 11.1192 13.187 11.3062V13.5505C11.916 13.3635 10.9459 13.2907 10.2352 13.2907C5.56634 13.2907 2.42781 16.5065 2.42781 21.1093C2.42781 25.7122 5.56634 28.8916 10.2352 28.8916C10.9459 28.8916 11.916 28.8188 13.187 28.6318V30.8761C12.0301 31.0995 10.9096 31.2138 10.0121 31.2138C4.18124 31.2034 0 27.0109 0 21.1041Z" fill="url(#paint0_linear_926_3029)"/>
<path d="M13.8427 20.9635C13.8427 14.9424 18.1743 10.6772 23.5902 10.6772C26.9155 10.6772 29.8258 12.2877 31.1746 14.7554V11.0513H33.3793V30.803H31.1746V27.1353C29.831 29.6029 26.9155 31.1771 23.5902 31.1771C18.1743 31.1771 13.8427 26.9119 13.8427 20.9635ZM23.8548 28.8964C27.8545 28.8964 31.2161 26.1274 31.2161 20.9635C31.2161 15.7996 27.8545 12.9579 23.8548 12.9579C19.4868 12.9579 16.2705 16.3243 16.2705 20.9635C16.2705 25.6027 19.4816 28.8964 23.8548 28.8964Z" fill="url(#paint1_linear_926_3029)"/>
<path d="M42.2613 10.6772C45.3635 10.6772 47.4541 12.2098 48.3879 14.4904C49.358 12.2098 51.4486 10.6772 54.5871 10.6772C58.9188 10.6772 61.4244 13.7423 61.4244 18.6829V30.803H59.0329V18.7972C59.0329 15.171 57.5752 12.9631 54.473 12.9631C51.3708 12.9631 49.5811 15.2437 49.5811 19.1712V30.803H47.1896V19.1712C47.1896 15.2437 45.4725 12.9631 42.3339 12.9631C39.1954 12.9631 37.7377 15.171 37.7377 18.7972V30.803H35.3462V18.6829C35.3462 13.7475 37.8466 10.6772 42.2561 10.6772H42.2613Z" fill="url(#paint2_linear_926_3029)"/>
<path d="M65.5961 27.3656V30.9554H63.3914L63.3914 0.653809H65.7829L65.7829 10.3828C65.7829 11.8063 65.7466 13.2609 65.7102 14.648C67.1317 12.331 69.9693 10.8348 73.1441 10.8348C78.56 10.8348 82.9332 15.1 82.9332 21.1211C82.9332 27.1422 78.5652 31.3346 73.1441 31.3346C69.8967 31.3346 66.9812 29.8021 65.5961 27.3708V27.3656ZM72.9159 29.0488C77.2839 29.0488 80.5002 25.7187 80.5002 21.1159C80.5002 16.513 77.2891 13.1102 72.9159 13.1102C68.9214 13.1102 65.5546 15.9156 65.5546 21.1159C65.5546 26.3162 68.9162 29.0488 72.9159 29.0488Z" fill="url(#paint3_linear_926_3029)"/>
<path fill-rule="evenodd" clip-rule="evenodd" d="M86.5434 20.8632C86.5434 16.1139 89.9727 12.6438 94.4796 12.6438C98.8031 12.6438 102.349 15.0165 109.654 22.1991C109.508 22.1986 109.363 22.1984 109.217 22.1984C109.214 22.1984 109.212 22.1983 109.209 22.1983C109.167 22.198 109.14 22.1978 109.14 22.2659C109.15 22.7542 109.15 23.2374 109.15 23.7205C109.15 23.7829 109.171 23.7933 109.228 23.7933H110.193C110.641 23.7959 111.091 23.7998 111.541 23.8037C111.991 23.8075 112.442 23.8114 112.89 23.814C112.906 23.814 112.923 23.8176 112.947 23.8227C112.963 23.8262 112.983 23.8303 113.008 23.8345C113.009 23.8363 113.009 23.8382 113.01 23.84V23.8348C113.009 23.8347 113.009 23.8346 113.008 23.8345C113.005 23.8253 113.003 23.817 113 23.8093C112.99 23.7767 112.984 23.7564 112.984 23.7361C112.973 22.5101 112.963 21.284 112.958 20.058C112.958 19.9957 112.942 19.9801 112.88 19.9801C112.413 19.9801 111.951 19.975 111.484 19.9699L111.469 19.9697C111.391 19.9645 111.37 19.9801 111.37 20.0632L111.375 20.6726C104.063 13.4625 99.8594 10.3491 94.4796 10.3491C88.6423 10.3491 84.2487 14.9106 84.2487 20.8632C84.2487 26.8209 88.6473 31.3461 94.4796 31.3461C97.7581 31.3461 100.613 29.9102 102.472 27.5534L100.67 26.1321C99.2509 27.9314 97.0631 29.0514 94.4796 29.0514C89.9677 29.0514 86.5434 25.6074 86.5434 20.8632Z" fill="url(#paint4_linear_926_3029)"/>
<path fill-rule="evenodd" clip-rule="evenodd" d="M122.758 20.8155C122.758 25.5648 119.328 29.0349 114.821 29.0349C110.498 29.0349 106.952 26.6622 99.6475 19.4797C99.7927 19.4801 99.938 19.4803 100.084 19.4803C100.087 19.4803 100.089 19.4804 100.092 19.4804C100.134 19.4807 100.161 19.4809 100.161 19.4128C100.151 18.9245 100.151 18.4413 100.151 17.9582C100.151 17.8958 100.13 17.8854 100.073 17.8854L99.1083 17.8854C98.6596 17.8828 98.2096 17.879 97.7596 17.8751C97.3095 17.8712 96.8595 17.8673 96.4107 17.8647C96.3955 17.8647 96.3785 17.8611 96.3544 17.856C96.3379 17.8525 96.318 17.8484 96.293 17.8442C96.2925 17.8424 96.2919 17.8405 96.2914 17.8387L96.2914 17.8439C96.2919 17.844 96.2925 17.8441 96.293 17.8442C96.2958 17.8534 96.2984 17.8617 96.3008 17.8694C96.311 17.902 96.3173 17.9223 96.3173 17.9426C96.3277 19.1686 96.3381 20.3947 96.3432 21.6207C96.3432 21.6831 96.3588 21.6986 96.421 21.6986C96.888 21.6986 97.3498 21.7037 97.8166 21.7089L97.8321 21.709C97.9099 21.7142 97.9307 21.6986 97.9307 21.6155L97.9261 21.0061C105.238 28.2162 109.442 31.3296 114.821 31.3296C120.659 31.3296 125.052 26.7681 125.052 20.8155C125.052 14.8578 120.654 10.3326 114.821 10.3326C111.543 10.3326 108.688 11.7685 106.829 14.1253L108.631 15.5466C110.05 13.7473 112.238 12.6273 114.821 12.6273C119.333 12.6273 122.758 16.0713 122.758 20.8155Z" fill="url(#paint5_linear_926_3029)"/>
<defs>
<linearGradient id="paint0_linear_926_3029" x1="6.59349" y1="11.0049" x2="6.59349" y2="31.2138" gradientUnits="userSpaceOnUse">
<stop stop-color="#041737"/>
<stop offset="1" stop-color="#071166"/>
</linearGradient>
<linearGradient id="paint1_linear_926_3029" x1="23.611" y1="10.6772" x2="23.611" y2="31.1771" gradientUnits="userSpaceOnUse">
<stop stop-color="#041737"/>
<stop offset="1" stop-color="#071166"/>
</linearGradient>
<linearGradient id="paint2_linear_926_3029" x1="48.3853" y1="10.6772" x2="48.3853" y2="30.803" gradientUnits="userSpaceOnUse">
<stop stop-color="#041737"/>
<stop offset="1" stop-color="#071166"/>
</linearGradient>
<linearGradient id="paint3_linear_926_3029" x1="73.1623" y1="0.653809" x2="73.1623" y2="31.3346" gradientUnits="userSpaceOnUse">
<stop stop-color="#041737"/>
<stop offset="1" stop-color="#071166"/>
</linearGradient>
<linearGradient id="paint4_linear_926_3029" x1="98.6292" y1="10.3491" x2="98.6292" y2="31.3461" gradientUnits="userSpaceOnUse">
<stop stop-color="#041737"/>
<stop offset="1" stop-color="#071166"/>
</linearGradient>
<linearGradient id="paint5_linear_926_3029" x1="110.672" y1="31.3296" x2="110.672" y2="10.3326" gradientUnits="userSpaceOnUse">
<stop stop-color="#041737"/>
<stop offset="1" stop-color="#071166"/>
</linearGradient>
</defs>
</svg>
