<svg width="38" height="32" viewBox="0 0 38 32" fill="none" xmlns="http://www.w3.org/2000/svg">
<path fill-rule="evenodd" clip-rule="evenodd" d="M31.0666 0C31.6189 0 32.0666 0.447715 32.0666 1V5.01096H36.0779C36.6302 5.01096 37.0779 5.45868 37.0779 6.01096C37.0779 6.56325 36.6302 7.01096 36.0779 7.01096H32.0666V11.0221C32.0666 11.5744 31.6189 12.0221 31.0666 12.0221C30.5143 12.0221 30.0666 11.5744 30.0666 11.0221V7.01096H26.0558C25.5035 7.01096 25.0558 6.56325 25.0558 6.01096C25.0558 5.45868 25.5035 5.01096 26.0558 5.01096H30.0666V1C30.0666 0.447715 30.5143 0 31.0666 0ZM11.6218 4.02455C11.8072 3.74635 12.1195 3.57925 12.4538 3.57925H21.0442C21.5965 3.57925 22.0442 4.02697 22.0442 4.57925C22.0442 5.13153 21.5965 5.57925 21.0442 5.57925H12.989L10.4224 9.42913C10.2369 9.70733 9.92471 9.87443 9.59036 9.87443H3.86345C3.36923 9.87443 2.89526 10.0708 2.54579 10.4202C2.19633 10.7697 2 11.2437 2 11.7379V27.4869C2 27.9811 2.19633 28.4551 2.54579 28.8045C2.89526 29.154 3.36924 29.3503 3.86345 29.3503H29.6345C30.1288 29.3503 30.6027 29.154 30.9522 28.8045C31.3017 28.4551 31.498 27.9811 31.498 27.4869V15.3172C31.498 14.7649 31.9457 14.3172 32.498 14.3172C33.0503 14.3172 33.498 14.7649 33.498 15.3172V27.4869C33.498 28.5115 33.0909 29.4942 32.3664 30.2188C31.6419 30.9433 30.6592 31.3503 29.6345 31.3503H3.86345C2.8388 31.3503 1.85612 30.9433 1.13158 30.2188C0.407041 29.4942 0 28.5115 0 27.4869V11.7379C0 10.7132 0.407041 9.73055 1.13158 9.00601C1.85612 8.28147 2.8388 7.87443 3.86345 7.87443H9.05518L11.6218 4.02455ZM16.7488 14.1698C14.1382 14.1698 12.0219 16.2861 12.0219 18.8967C12.0219 21.5073 14.1382 23.6236 16.7488 23.6236C19.3594 23.6236 21.4757 21.5073 21.4757 18.8967C21.4757 16.2861 19.3594 14.1698 16.7488 14.1698ZM10.0219 18.8967C10.0219 15.1815 13.0337 12.1698 16.7488 12.1698C20.464 12.1698 23.4757 15.1815 23.4757 18.8967C23.4757 22.6118 20.464 25.6236 16.7488 25.6236C13.0337 25.6236 10.0219 22.6118 10.0219 18.8967Z" fill="#041737"/>
</svg>
