<svg width="32" height="33" viewBox="0 0 32 33" fill="none" xmlns="http://www.w3.org/2000/svg">
<path d="M4 8.15381H6.66667H28" stroke="black" stroke-width="2" stroke-linecap="round" stroke-linejoin="round"/>
<path d="M25.3333 8.15377V26.8204C25.3333 27.5277 25.0523 28.206 24.5522 28.7061C24.0521 29.2061 23.3739 29.4871 22.6666 29.4871H9.33329C8.62605 29.4871 7.94777 29.2061 7.44767 28.7061C6.94758 28.206 6.66663 27.5277 6.66663 26.8204V8.15377M10.6666 8.15377V5.4871C10.6666 4.77986 10.9476 4.10158 11.4477 3.60148C11.9478 3.10139 12.626 2.82043 13.3333 2.82043H18.6666C19.3739 2.82043 20.0521 3.10139 20.5522 3.60148C21.0523 4.10158 21.3333 4.77986 21.3333 5.4871V8.15377" stroke="black" stroke-width="2" stroke-linecap="round" stroke-linejoin="round"/>
<path d="M13.3334 14.8204V22.8204" stroke="black" stroke-width="2" stroke-linecap="round" stroke-linejoin="round"/>
<path d="M18.6666 14.8204V22.8204" stroke="black" stroke-width="2" stroke-linecap="round" stroke-linejoin="round"/>
</svg>
